<?xml version="1.0" encoding="UTF-8"?>
<svg xmlns="http://www.w3.org/2000/svg" xmlns:xlink="http://www.w3.org/1999/xlink" width="375pt" height="374.999991pt" viewBox="0 0 375 374.999991" version="1.2">
<g id="surface1">
<path style=" stroke:none;fill-rule:nonzero;fill:rgb(20.388794%,59.609985%,85.879517%);fill-opacity:1;" d="M 367.875 187.425781 L 374.773438 171.976562 L 365.398438 157.800781 L 369.75 141.375 L 358.125 129 L 359.625 112.125 L 346.125 101.773438 L 344.851562 84.898438 L 329.773438 76.949219 L 325.726562 60.449219 L 309.601562 55.050781 L 302.851562 39.449219 L 286.050781 36.75 L 276.898438 22.5 L 259.875 22.648438 L 248.398438 10.050781 L 231.675781 12.976562 L 218.25 2.476562 L 202.199219 8.101562 L 187.273438 -0.0742188 L 172.425781 8.101562 L 156.375 2.476562 L 142.949219 12.976562 L 126.226562 10.050781 L 114.75 22.648438 L 97.726562 22.5 L 88.574219 36.75 L 71.773438 39.449219 L 65.023438 55.050781 L 48.898438 60.449219 L 44.851562 76.949219 L 29.773438 84.898438 L 28.5 101.773438 L 15 112.125 L 16.5 129 L 4.875 141.375 L 9.226562 157.800781 L -0.226562 171.976562 L 6.75 187.425781 L -0.226562 202.949219 L 9.226562 217.050781 L 4.875 233.476562 L 16.5 245.925781 L 15 262.800781 L 28.5 273.074219 L 29.773438 290.023438 L 44.851562 297.976562 L 48.898438 314.476562 L 65.023438 319.875 L 71.773438 335.398438 L 88.574219 338.101562 L 97.726562 352.351562 L 114.75 352.273438 L 126.226562 364.800781 L 142.949219 361.949219 L 156.375 372.449219 L 172.425781 366.75 L 187.273438 374.925781 L 202.199219 366.75 L 218.25 372.449219 L 231.675781 361.949219 L 248.398438 364.800781 L 259.875 352.273438 L 276.898438 352.351562 L 286.050781 338.101562 L 302.851562 335.398438 L 309.601562 319.800781 L 325.726562 314.398438 L 329.773438 297.976562 L 344.851562 290.023438 L 346.125 273.074219 L 359.625 262.800781 L 358.125 245.925781 L 369.75 233.476562 L 365.398438 217.050781 L 374.773438 202.949219 Z M 367.875 187.425781 "/>
<path style=" stroke:none;fill-rule:nonzero;fill:rgb(100%,98.81897%,94.509888%);fill-opacity:1;" d="M 196.355469 190.925781 L 314.570312 160.722656 L 211.945312 130.519531 L 64.351562 155.855469 L 196.355469 190.925781 "/>
<path style=" stroke:none;fill-rule:nonzero;fill:rgb(100%,98.81897%,94.509888%);fill-opacity:1;" d="M 196.355469 190.925781 L 64.351562 155.855469 L 64.347656 168.519531 L 196.351562 203.59375 L 314.574219 173.390625 L 314.574219 160.722656 L 196.359375 190.925781 "/>
<path style=" stroke:none;fill-rule:nonzero;fill:rgb(100%,98.81897%,94.509888%);fill-opacity:1;" d="M 196.355469 209.921875 L 125.730469 191.160156 L 125.730469 228.921875 C 125.730469 228.921875 148.378906 248.40625 193.441406 248.40625 C 238.496094 248.40625 265.527344 228.921875 265.527344 228.921875 L 265.527344 190.925781 L 196.355469 209.921875 "/>
<path style=" stroke:none;fill-rule:nonzero;fill:rgb(100%,98.81897%,94.509888%);fill-opacity:1;" d="M 297.929688 262.394531 L 293.847656 263.347656 L 291.917969 242.222656 L 292.082031 264.535156 L 287.574219 264.535156 L 287.574219 253.019531 L 285.574219 263.460938 L 279.90625 262.394531 L 287.574219 224.183594 L 293.847656 224.183594 L 297.929688 262.394531 "/>
<path style=" stroke:none;fill-rule:nonzero;fill:rgb(100%,98.81897%,94.509888%);fill-opacity:1;" d="M 295.925781 224.183594 C 295.925781 226.859375 293.753906 229.023438 291.078125 229.023438 C 288.410156 229.023438 286.246094 226.859375 286.246094 224.183594 C 286.246094 221.515625 288.410156 219.34375 291.078125 219.34375 C 293.753906 219.34375 295.925781 221.515625 295.925781 224.183594 "/>
<path style=" stroke:none;fill-rule:nonzero;fill:rgb(100%,98.81897%,94.509888%);fill-opacity:1;" d="M 287.929688 225.933594 L 293.304688 225.933594 L 293.304688 168.894531 L 287.929688 168.894531 Z M 287.929688 225.933594 "/>
</g>
</svg>
